<svg width="30" height="40" viewBox="0 0 30 40" fill="none" xmlns="http://www.w3.org/2000/svg">
<g opacity="0.7" clip-path="url(#clip0_248_999)">
<g clip-path="url(#clip1_248_999)">
<path d="M17.5417 14.1667C18.3556 14.3255 19.1037 14.7236 19.6901 15.31C20.2765 15.8964 20.6745 16.6444 20.8333 17.4584M17.5417 10.8334C19.2327 11.0212 20.8097 11.7785 22.0135 12.9809C23.2174 14.1832 23.9767 15.7592 24.1667 17.45M23.3333 24.1V26.6C23.3343 26.8321 23.2867 27.0618 23.1938 27.2745C23.1008 27.4871 22.9644 27.678 22.7934 27.8349C22.6224 27.9918 22.4205 28.1113 22.2006 28.1856C21.9808 28.26 21.7478 28.2876 21.5167 28.2667C18.9524 27.9881 16.4892 27.1118 14.325 25.7084C12.3115 24.4289 10.6044 22.7219 9.325 20.7084C7.91665 18.5344 7.0402 16.0592 6.76667 13.4834C6.74584 13.2529 6.77323 13.0207 6.84708 12.8014C6.92094 12.5821 7.03964 12.3806 7.19564 12.2097C7.35163 12.0388 7.5415 11.9023 7.75316 11.8088C7.96481 11.7153 8.19362 11.6669 8.425 11.6667H10.925C11.3294 11.6627 11.7215 11.8059 12.0281 12.0697C12.3348 12.3334 12.5351 12.6996 12.5917 13.1C12.6972 13.9001 12.8929 14.6856 13.175 15.4417C13.2871 15.74 13.3114 16.0641 13.2449 16.3758C13.1785 16.6874 13.0241 16.9735 12.8 17.2L11.7417 18.2584C12.928 20.3447 14.6554 22.0721 16.7417 23.2584L17.8 22.2C18.0266 21.976 18.3126 21.8216 18.6243 21.7551C18.9359 21.6887 19.2601 21.7129 19.5583 21.825C20.3144 22.1072 21.0999 22.3029 21.9 22.4084C22.3048 22.4655 22.6745 22.6694 22.9388 22.9813C23.2031 23.2932 23.3435 23.6914 23.3333 24.1Z" stroke="white" stroke-width="1.66667" stroke-linecap="round" stroke-linejoin="round"/>
</g>
</g>
<defs>
<clipPath id="clip0_248_999">
<rect width="30" height="40" fill="white"/>
</clipPath>
<clipPath id="clip1_248_999">
<rect width="20" height="20" fill="white" transform="translate(5 10)"/>
</clipPath>
</defs>
</svg>
